<?xml version="1.0" encoding="UTF-8"?>
<svg id="Layer_2" data-name="Layer 2" xmlns="http://www.w3.org/2000/svg" viewBox="0 0 316.3 97.27">
  <defs>
    <style>
      .cls-1 {
        fill: #8cc63f;
      }

      .cls-2 {
        fill: #001f38;
      }
    </style>
  </defs>
  <g id="Layer_1-2" data-name="Layer 1">
    <g>
      <g>
        <path class="cls-2" d="M105.45,20.94h16.71v5.54h-10.86v3.93h8.67v5.57h-8.67v4.49h10.86v5.53h-16.71v-25.06Z"/>
        <path class="cls-2" d="M138.91,40.92h-7.31l-1.39,5.08h-6.06l7.8-25.06h6.82l7.8,25.06h-6.3l-1.36-5.08ZM137.44,35.38l-2.12-8.01-2.19,8.01h4.32Z"/>
        <path class="cls-2" d="M161.08,29.32v-2.3c0-.46-.26-.7-.77-.7h-5.26c-.49,0-.73.23-.73.7v12.84c0,.49.24.73.73.73h5.26c.51,0,.77-.23.77-.7v-2.99h-4v-5.26h9.85v9.57c0,1.44-.46,2.62-1.39,3.55-.9.9-2.09,1.36-3.55,1.36h-8.6c-1.46,0-2.65-.45-3.55-1.36-.93-.93-1.39-2.11-1.39-3.55v-15.53c0-1.44.46-2.62,1.39-3.55s2.11-1.39,3.55-1.39h8.6c1.44,0,2.62.46,3.55,1.39s1.39,2.11,1.39,3.55v3.62h-5.85Z"/>
        <path class="cls-2" d="M171.31,20.94h5.85v19.53h9.99v5.53h-15.84v-25.06Z"/>
        <path class="cls-2" d="M190.53,20.94h16.71v5.54h-10.86v3.93h8.67v5.57h-8.67v4.49h10.86v5.53h-16.71v-25.06Z"/>
        <path class="cls-2" d="M239.37,46l-6.2-.07-3.59-8.91h-3.1v8.91h-5.85v-25.06h13.12c1.44,0,2.61.46,3.52,1.39.9.93,1.36,2.11,1.36,3.55v6.3c0,1.07-.28,2.02-.84,2.85-.56.84-1.3,1.43-2.23,1.78l3.79,9.26ZM232.82,30.86v-3.76c0-.46-.24-.7-.73-.7h-5.6v5.15h5.6c.49,0,.73-.23.73-.7Z"/>
        <path class="cls-2" d="M243.13,46v-25.06h5.85v25.06h-5.85Z"/>
        <path class="cls-2" d="M273.62,20.94l-7.42,25.06h-6.75l-7.41-25.06h6.72l4.07,17.96,4.21-17.96h6.58Z"/>
        <path class="cls-2" d="M276.65,20.94h16.71v5.54h-10.86v3.93h8.67v5.57h-8.67v4.49h10.86v5.53h-16.71v-25.06Z"/>
        <path class="cls-2" d="M316.3,46l-6.2-.07-3.59-8.91h-3.1v8.91h-5.85v-25.06h13.12c1.44,0,2.61.46,3.52,1.39.9.93,1.36,2.11,1.36,3.55v6.3c0,1.07-.28,2.02-.84,2.85-.56.84-1.3,1.43-2.23,1.78l3.79,9.26ZM309.75,30.86v-3.76c0-.46-.24-.7-.73-.7h-5.6v5.15h5.6c.49,0,.73-.23.73-.7Z"/>
        <path class="cls-2" d="M124.25,78.99l-6.2-.07-3.59-8.91h-3.1v8.91h-5.85v-25.06h13.12c1.44,0,2.61.46,3.52,1.39.9.93,1.36,2.11,1.36,3.55v6.3c0,1.07-.28,2.02-.84,2.85-.56.84-1.3,1.43-2.23,1.78l3.79,9.26ZM117.71,63.85v-3.76c0-.46-.24-.7-.73-.7h-5.6v5.15h5.6c.49,0,.73-.23.73-.7Z"/>
        <path class="cls-2" d="M128.01,53.93h16.71v5.54h-10.86v3.93h8.67v5.57h-8.67v4.49h10.86v5.53h-16.71v-25.06Z"/>
        <path class="cls-2" d="M161.22,79.1h-8.28c-1.46,0-2.65-.45-3.55-1.36-.93-.93-1.39-2.11-1.39-3.55v-15.53c0-1.44.46-2.62,1.39-3.55.93-.93,2.11-1.39,3.55-1.39h8.28c1.44,0,2.62.46,3.55,1.39.93.93,1.39,2.11,1.39,3.55v4.53h-5.85v-3.2c0-.46-.24-.7-.73-.7h-4.94c-.49,0-.73.23-.73.7v12.88c0,.46.24.7.73.7h4.94c.49,0,.73-.23.73-.7v-3.2h5.85v4.53c0,1.44-.46,2.62-1.39,3.55-.9.91-2.09,1.36-3.55,1.36Z"/>
        <path class="cls-2" d="M183.25,79.1h-8.74c-1.46,0-2.65-.45-3.55-1.36-.93-.93-1.39-2.11-1.39-3.55v-15.53c0-1.44.46-2.62,1.39-3.55.93-.93,2.11-1.39,3.55-1.39h8.74c1.44,0,2.61.46,3.52,1.39.9.93,1.36,2.11,1.36,3.55v15.53c0,1.44-.45,2.62-1.36,3.55-.88.91-2.05,1.36-3.52,1.36ZM175.46,60.02v12.88c0,.46.24.7.73.7h5.4c.49,0,.73-.23.73-.7v-12.88c0-.46-.24-.7-.73-.7h-5.4c-.49,0-.73.23-.73.7Z"/>
        <path class="cls-2" d="M211.83,53.93l-7.42,25.06h-6.75l-7.41-25.06h6.72l4.07,17.96,4.21-17.96h6.58Z"/>
        <path class="cls-2" d="M214.86,53.93h16.71v5.54h-10.86v3.93h8.67v5.57h-8.67v4.49h10.86v5.53h-16.71v-25.06Z"/>
        <path class="cls-2" d="M254.51,78.99l-6.2-.07-3.59-8.91h-3.1v8.91h-5.85v-25.06h13.12c1.44,0,2.61.46,3.52,1.39.9.93,1.36,2.11,1.36,3.55v6.3c0,1.07-.28,2.02-.84,2.85-.56.84-1.3,1.43-2.23,1.78l3.79,9.26ZM247.97,63.85v-3.76c0-.46-.24-.7-.73-.7h-5.6v5.15h5.6c.49,0,.73-.23.73-.7Z"/>
        <path class="cls-2" d="M268.78,78.99h-5.85v-8.46l-7.41-16.6h6.37l3.97,10.06,3.97-10.06h6.37l-7.42,16.6v8.46Z"/>
      </g>
      <g>
        <path class="cls-1" d="M59.25,15.51c3.84,3.21,10.45,1.99,12.69-2.54,1.52-2.63,1.46-6.04-.11-8.63-1.59-3.21-5.47-4.87-8.94-4.18-3.89.7-7.03,4.48-6.84,8.46-.12,2.63,1.11,5.28,3.2,6.89Z"/>
        <polygon class="cls-1" points="34.08 47.07 48.23 47.05 58.17 56.84 81.38 56.81 84.4 44.46 61.52 44.46 64.75 31.01 77.12 35.75 87.71 14.68 73.7 24.55 39.22 11.54 28.9 34.82 43.93 23.02 48.89 24.92 40.99 36.28 52.18 36.28 50.14 39.65 16.78 39.66 14.39 43.63 36.25 43.6 34.08 47.07"/>
        <polygon class="cls-1" points="12.91 39.73 4.47 39.7 2.1 43.63 10.57 43.64 12.91 39.73"/>
        <path class="cls-1" d="M64.12,73.24c1.41-1.5,1.36-3.93.32-5.62-1.15-1.48-2.65-2.61-3.88-4.02l-13.54-13.26H15.27s-2.45,3.98-2.45,3.98l17.31-.05c-.02,2.65,1.49,5.21,3.79,6.52,5.28,2.98,10.57,5.95,15.86,8.9l-18.6,14.8,27.82-8.92c1.77-.59,3.79-.91,5.13-2.34Z"/>
        <path class="cls-1" d="M32.34,63.54c-2.24-1.35-4.06-3.44-4.96-5.9L3.81,97.27l35.03-29.91c-2.17-1.27-4.35-2.51-6.49-3.81Z"/>
        <polygon class="cls-1" points="21.26 61.28 2.31 61.28 0 65.13 19.05 65.13 21.26 61.28"/>
        <path class="cls-1" d="M63.17,77.67c-4.34,1.57-13.18,4.31-13.18,4.31h31.89s3.09-12.65,3.09-12.65h-16.55c.48,3.61-1.88,7.14-5.25,8.35Z"/>
      </g>
    </g>
  </g>
</svg>