<?xml version="1.0" encoding="UTF-8"?>
<svg id="Layer_2" data-name="Layer 2" xmlns="http://www.w3.org/2000/svg" viewBox="0 0 128.97 143.03">
  <defs>
    <style>
      .cls-1 {
        fill: #8cc63f;
      }
    </style>
  </defs>
  <g id="Layer_1-2" data-name="Layer 1">
    <g>
      <path class="cls-1" d="M87.13,22.8c5.65,4.72,15.36,2.93,18.66-3.74,2.24-3.87,2.15-8.88-.16-12.69-2.34-4.72-8.05-7.17-13.14-6.15-5.72,1.03-10.33,6.59-10.06,12.44-.18,3.87,1.63,7.76,4.7,10.13Z"/>
      <polygon class="cls-1" points="50.12 69.22 70.92 69.18 85.53 83.58 119.66 83.53 124.11 65.37 90.46 65.37 95.22 45.59 113.4 52.57 128.97 21.59 108.37 36.1 57.66 16.97 42.49 51.2 64.6 33.84 71.89 36.64 60.27 53.34 76.72 53.34 73.73 58.31 24.68 58.32 21.16 64.16 53.3 64.12 50.12 69.22"/>
      <polygon class="cls-1" points="18.98 58.42 6.57 58.38 3.08 64.15 15.54 64.16 18.98 58.42"/>
      <path class="cls-1" d="M94.29,107.7c2.08-2.21,2.01-5.77.46-8.26-1.69-2.17-3.9-3.84-5.71-5.91l-19.92-19.5H22.45s-3.61,5.86-3.61,5.86l25.45-.08c-.02,3.9,2.19,7.66,5.57,9.59,7.77,4.38,15.54,8.75,23.33,13.09l-27.35,21.76,40.91-13.12c2.6-.87,5.57-1.34,7.54-3.43Z"/>
      <path class="cls-1" d="M47.55,93.44c-3.3-1.98-5.96-5.05-7.29-8.68L5.6,143.03l51.5-43.98c-3.19-1.86-6.4-3.69-9.55-5.61Z"/>
      <polygon class="cls-1" points="31.27 90.11 3.4 90.11 0 95.77 28.01 95.78 31.27 90.11"/>
      <path class="cls-1" d="M92.89,114.21c-6.39,2.31-19.38,6.33-19.38,6.33h46.9s4.55-18.6,4.55-18.6h-24.34c.7,5.31-2.77,10.5-7.72,12.27Z"/>
    </g>
  </g>
</svg>